<svg height="512pt" viewBox="0 -61 512 512" width="512pt" xmlns="http://www.w3.org/2000/svg"><path d="m504.5 17.496094v355.980468c0 5.519532-4.480469 10-10 10h-477c-5.519531 0-10-4.480468-10-10v-355.980468c0-5.519532 4.480469-10 10-10h477c5.519531 0 10 4.480468 10 10zm0 0" fill="#e8e6ed"/><path d="m353.269531 348.375v35.101562h-194.539062v-35.101562c0-5.523438 4.476562-10 10-10h174.539062c5.523438 0 10 4.476562 10 10zm0 0" fill="#ffb800"/><path d="m353.269531 348.375v35.101562h-39.460937c8.910156-18.320312 11.191406-35.050781 11.640625-45.101562h17.820312c5.523438 0 10 4.476562 10 10zm0 0" fill="#ff9700"/><path d="m504.5 17.496094v355.980468c0 5.519532-4.480469 10-10 10h-119.78125c110.640625-95.769531 108.179688-318.449218 105.570312-375.980468h14.210938c5.519531 0 10 4.480468 10 10zm0 0" fill="#d1d0d8"/><path d="m504.5 17.496094v53.03125h-497v-53.03125c0-5.519532 4.480469-10 10-10h477c5.519531 0 10 4.480468 10 10zm0 0" fill="#898993"/><path d="m504.5 17.496094v53.03125h-23.828125c.816406-27.460938.226563-49.691406-.382813-63.03125h14.210938c5.519531 0 10 4.480468 10 10zm0 0" fill="#717177"/><path d="m119.902344 383.476562h-62.664063v-261.804687c0-5.523437 4.480469-10 10-10h42.664063c5.523437 0 10 4.476563 10 10zm0 0" fill="#7a48ff"/><path d="m454.761719 383.476562h-62.664063v-261.804687c0-5.523437 4.476563-10 10-10h42.664063c5.519531 0 10 4.476563 10 10zm0 0" fill="#22d0ff"/><path d="m454.761719 246.824219v136.652343h-62.660157v-17.0625c29.429688-32.566406 49.308594-75.039062 62.660157-119.589843zm0 0" fill="#06b9ff"/><path d="m353.269531 121.664062v86.113282c0 5.523437-4.476562 10-10 10h-174.539062c-5.523438 0-10-4.476563-10-10v-86.113282c0-5.519531 4.476562-10 10-10h174.539062c5.523438 0 10 4.480469 10 10zm0 0" fill="#ff5677"/><path d="m353.269531 121.664062v86.113282c0 5.523437-4.476562 10-10 10h-72.808593c40.117187-34.691406 50.910156-81.972656 53.800781-106.113282h19.007812c5.523438 0 10 4.480469 10 10zm0 0" fill="#ff2953"/><path d="m504.5 288.796875c4.140625 0 7.5-3.355469 7.5-7.5v-263.796875c0-9.648438-7.851562-17.5-17.5-17.5h-477c-9.648438 0-17.5 7.851562-17.5 17.5v355.972656c0 9.648438 7.851562 17.5 17.5 17.5h477c9.648438 0 17.5-7.851562 17.5-17.5v-57.652344c0-4.144531-3.359375-7.5-7.5-7.5s-7.5 3.355469-7.5 7.5v57.652344c0 1.378906-1.121094 2.5-2.5 2.5h-32.238281v-254.308594c0-9.648437-7.851563-17.5-17.5-17.5h-42.660157c-9.652343 0-17.5 7.851563-17.5 17.5v254.308594h-23.832031v-27.597656c0-9.648438-7.851562-17.5-17.5-17.5h-174.539062c-9.648438 0-17.5 7.851562-17.5 17.5v27.597656h-23.828125v-254.300781c0-9.652344-7.851563-17.5-17.5-17.5h-42.664063c-9.648437 0-17.5 7.847656-17.5 17.5v120.628906c0 4.140625 3.359375 7.5 7.5 7.5 4.144531 0 7.5-3.359375 7.5-7.5v-120.628906c0-1.382813 1.125-2.5 2.5-2.5h42.664063c1.378906 0 2.5 1.117187 2.5 2.5v254.300781h-47.664063v-99.152344c0-4.140624-3.355469-7.5-7.5-7.5-4.140625 0-7.5 3.359376-7.5 7.5v99.152344h-32.238281c-1.378906 0-2.5-1.121094-2.5-2.5v-295.445312h482v203.269531c0 4.140625 3.359375 7.5 7.5 7.5zm-104.898438-167.132813c0-1.378906 1.121094-2.5 2.5-2.5h42.660157c1.375 0 2.5 1.121094 2.5 2.5v254.308594h-47.660157zm-233.371093 226.710938c0-1.378906 1.121093-2.5 2.5-2.5h174.539062c1.378907 0 2.5 1.121094 2.5 2.5v27.597656h-179.539062zm-151.230469-285.347656v-45.527344c0-1.378906 1.121094-2.5 2.5-2.5h477c1.378906 0 2.5 1.121094 2.5 2.5v45.527344zm0 0"/><path d="m47.609375 31.511719h-.113281c-.019532 0-.042969 0-.0625 0-4.113282 0-7.464844 3.316406-7.5 7.4375-.035156 4.140625 3.292968 7.527343 7.433594 7.5625h.113281.066406c4.113281 0 7.464844-3.3125 7.5-7.433594.035156-4.140625-3.292969-7.527344-7.4375-7.566406zm0 0"/><path d="m70.253906 31.511719h-.113281c-.023437 0-.042969 0-.066406 0-4.109375 0-7.460938 3.316406-7.496094 7.4375-.039063 4.140625 3.289063 7.527343 7.433594 7.5625h.113281.066406c4.109375 0 7.460938-3.3125 7.496094-7.433594.039062-4.140625-3.292969-7.527344-7.433594-7.566406zm0 0"/><path d="m92.898438 31.511719h-.113282c-.023437 0-.046875 0-.066406 0-4.113281 0-7.460938 3.316406-7.5 7.4375-.035156 4.140625 3.292969 7.527343 7.4375 7.5625h.113281.066407c4.109374 0 7.460937-3.3125 7.496093-7.433594.035157-4.140625-3.292969-7.527344-7.433593-7.566406zm0 0"/><path d="m464.566406 31.511719h-13.957031c-4.140625 0-7.5 3.355469-7.5 7.5s3.359375 7.5 7.5 7.5h13.957031c4.144532 0 7.5-3.355469 7.5-7.5s-3.355468-7.5-7.5-7.5zm0 0"/><path d="m353.265625 243.832031h-194.53125c-4.144531 0-7.5 3.355469-7.5 7.5 0 4.140625 3.355469 7.5 7.5 7.5h194.53125c4.144531 0 7.5-3.359375 7.5-7.5 0-4.144531-3.355469-7.5-7.5-7.5zm0 0"/><path d="m353.265625 271.074219h-138.265625c-4.140625 0-7.5 3.359375-7.5 7.5 0 4.144531 3.359375 7.5 7.5 7.5h138.265625c4.144531 0 7.5-3.355469 7.5-7.5 0-4.140625-3.355469-7.5-7.5-7.5zm0 0"/><path d="m158.734375 286.074219h32.265625c4.140625 0 7.5-3.355469 7.5-7.5 0-4.140625-3.359375-7.5-7.5-7.5h-32.265625c-4.144531 0-7.5 3.359375-7.5 7.5 0 4.144531 3.355469 7.5 7.5 7.5zm0 0"/><path d="m158.734375 313.320312h194.53125c4.144531 0 7.5-3.359374 7.5-7.5 0-4.144531-3.355469-7.5-7.5-7.5h-194.53125c-4.144531 0-7.5 3.355469-7.5 7.5 0 4.140626 3.355469 7.5 7.5 7.5zm0 0"/><path d="m360.769531 121.664062c0-9.648437-7.851562-17.5-17.5-17.5h-174.539062c-9.648438 0-17.5 7.851563-17.5 17.5v86.113282c0 9.648437 7.851562 17.5 17.5 17.5h111.625c4.140625 0 7.5-3.359375 7.5-7.5 0-4.144532-3.359375-7.5-7.5-7.5h-111.625c-1.378907 0-2.5-1.121094-2.5-2.5v-86.113282c0-1.378906 1.121093-2.5 2.5-2.5h174.539062c1.378907 0 2.5 1.121094 2.5 2.5v86.113282c0 1.378906-1.121093 2.5-2.5 2.5h-28.394531c-4.140625 0-7.5 3.355468-7.5 7.5 0 4.140625 3.359375 7.5 7.5 7.5h28.394531c9.648438 0 17.5-7.851563 17.5-17.5zm0 0"/></svg>