<?xml version="1.0" encoding="iso-8859-1"?>
<!-- Generator: Adobe Illustrator 19.0.0, SVG Export Plug-In . SVG Version: 6.00 Build 0)  -->
<svg version="1.1" id="Capa_1" xmlns="http://www.w3.org/2000/svg" xmlns:xlink="http://www.w3.org/1999/xlink" x="0px" y="0px"
	 viewBox="0 0 512 512" style="enable-background:new 0 0 512 512;" xml:space="preserve">
<circle style="fill:#445EA0;" cx="256" cy="256" r="245"/>
<path style="fill:#FFFFFF;" d="M263.5,393.9V361h-15v32.9c-10.394,3.21-17.968,12.906-17.968,24.34
	c0,14.043,11.425,25.468,25.468,25.468c14.043,0,25.468-11.425,25.468-25.468C281.468,406.807,273.895,397.111,263.5,393.9z
	 M256,428.708c-5.772,0-10.468-4.696-10.468-10.468c0-5.771,4.696-10.468,10.468-10.468c5.772,0,10.468,4.696,10.468,10.468
	S261.772,428.708,256,428.708z"/>
<path style="fill:#D9EAFC;" d="M56,69v38.966l28.78,37.48c1.09,1.42,1.276,3.301,0.483,4.907c-0.792,1.607-2.396,2.605-4.188,2.605
	H62.093c-0.552,0-1,0.447-1,1v43.935c0,2.574-2.095,4.669-4.669,4.669H56v22c0.93,0.039,1.815,0.482,2.384,1.224l27.707,36.083
	c0.739,0.963,0.865,2.237,0.328,3.326c-0.536,1.09-1.624,1.767-2.839,1.767H69.63c-0.552,0-1,0.447-1,1v32.287
	c0,1.745-1.42,3.165-3.166,3.165H56V357c0,2.75,2.25,5,5,5h267.077c-0.725-2.025-1.141-4.195-1.141-6.467
	c0-10.62,8.64-19.26,19.26-19.26h1.033c0.552,0,1-0.447,1-1V289.64c0-23.63,19.225-42.854,42.855-42.854
	c13.077,0,25.271,5.871,33.455,16.106c0.194,0.243,0.484,0.376,0.782,0.376c0.12,0,0.242-0.022,0.359-0.066
	c3.818-1.471,7.826-2.216,11.912-2.216c6.805,0,13.136,2.061,18.408,5.587V69H56z"/>
<g>
	<path style="fill:#C3DDF4;" d="M58.384,225.786l17.458,22.736v-95.564H62.093c-0.552,0-1,0.447-1,1v43.935
		c0,2.574-2.095,4.669-4.669,4.669H56v22C56.93,224.602,57.815,225.045,58.384,225.786z"/>
	<polygon style="fill:#C3DDF4;" points="75.842,133.807 75.842,69 56,69 56,107.966 	"/>
	<path style="fill:#C3DDF4;" d="M75.842,357v-90.038H69.63c-0.552,0-1,0.447-1,1v32.287c0,1.745-1.42,3.165-3.166,3.165H56V357
		c0,2.75,2.25,5,5,5h19.842C78.092,362,75.842,359.75,75.842,357z"/>
</g>
<path style="fill:#FE3745;" d="M470,65c0,2.75-2.25,5-5,5H47c-2.75,0-5-2.25-5-5V32c0-2.75,2.25-5,5-5h418c2.75,0,5,2.25,5,5V65z"/>
<path style="fill:#B7092B;" d="M61.842,65V32c0-2.75,2.25-5,5-5H47c-2.75,0-5,2.25-5,5v33c0,2.75,2.25,5,5,5h19.842
	C64.092,70,61.842,67.75,61.842,65z"/>
<g>
	<circle style="fill:#91E0E8;" cx="144.19" cy="132.21" r="35.496"/>
	<path style="fill:#91E0E8;" d="M138.931,157.305c-13.861-13.861-13.862-36.336,0-50.199c4.38-4.38,9.622-7.372,15.179-8.984
		c-12.029-3.488-25.54-0.497-35.021,8.984c-13.862,13.863-13.861,36.338,0,50.199c9.482,9.482,22.992,12.475,35.02,8.984
		C148.552,164.678,143.311,161.686,138.931,157.305z"/>
</g>
<path style="fill:#293D7C;" d="M207.903,185.315l-28.481-28.482c11.725-16.76,10.123-40.074-4.831-55.03
	c-8.121-8.12-18.918-12.593-30.403-12.593s-22.282,4.473-30.403,12.594c-16.763,16.765-16.763,44.042,0,60.805
	c8.121,8.122,18.918,12.595,30.403,12.595c8.943,0,17.462-2.723,24.632-7.758l28.477,28.478c1.464,1.464,3.384,2.196,5.303,2.196
	c1.919,0,3.839-0.732,5.303-2.196C210.833,192.992,210.833,188.244,207.903,185.315z M124.392,152.001
	c-10.915-10.915-10.915-28.676,0-39.592c5.288-5.288,12.318-8.2,19.796-8.2s14.509,2.912,19.796,8.199
	c10.916,10.917,10.916,28.678,0.001,39.593c-5.288,5.288-12.319,8.201-19.797,8.201C136.71,160.202,129.68,157.29,124.392,152.001z"
	/>
<g>
	<path style="fill:#5DC1D8;" d="M267.841,195.465c0,1.65-1.35,3-3,3h-16.499c-1.65,0-3-1.35-3-3v-95.74c0-1.65,1.35-3,3-3h16.499
		c1.65,0,3,1.35,3,3V195.465z"/>
	<path style="fill:#5DC1D8;" d="M297.84,195.465c0,1.65-1.35,3-3,3h-16.498c-1.65,0-3-1.35-3-3v-61.281c0-1.65,1.35-3,3-3h16.498
		c1.65,0,3,1.35,3,3V195.465z"/>
	<path style="fill:#5DC1D8;" d="M327.839,195.465c0,1.65-1.35,3-3,3H308.34c-1.65,0-3-1.35-3-3v-43.229c0-1.649,1.35-3,3-3h16.499
		c1.65,0,3,1.351,3,3V195.465z"/>
	<path style="fill:#5DC1D8;" d="M418,195.465c0,1.65-1.35,3-3,3h-16.499c-1.65,0-3-1.35-3-3v-23.068c0-1.65,1.35-3,3-3H415
		c1.65,0,3,1.35,3,3V195.465z"/>
	<path style="fill:#5DC1D8;" d="M357.839,195.465c0,1.65-1.35,3-3,3h-16.5c-1.65,0-3-1.35-3-3v-77.689c0-1.65,1.35-3,3-3h16.5
		c1.65,0,3,1.35,3,3V195.465z"/>
	<path style="fill:#5DC1D8;" d="M387.836,195.465c0,1.65-1.35,3-3,3h-16.499c-1.65,0-3-1.35-3-3v-53.076c0-1.65,1.35-3,3-3h16.499
		c1.65,0,3,1.35,3,3V195.465z"/>
</g>
<g>
	<path style="fill:#28A5A5;" d="M254.675,195.465v-95.74c0-1.65,1.35-3,3-3h-9.333c-1.65,0-3,1.35-3,3v95.74c0,1.65,1.35,3,3,3
		h9.333C256.026,198.465,254.675,197.115,254.675,195.465z"/>
	<path style="fill:#28A5A5;" d="M284.674,195.465v-61.281c0-1.65,1.35-3,3-3h-9.333c-1.65,0-3,1.35-3,3v61.281c0,1.65,1.35,3,3,3
		h9.333C286.025,198.465,284.674,197.115,284.674,195.465z"/>
	<path style="fill:#28A5A5;" d="M314.673,195.465v-43.229c0-1.649,1.35-3,3-3h-9.333c-1.65,0-3,1.351-3,3v43.229c0,1.65,1.35,3,3,3
		h9.333C316.023,198.465,314.673,197.115,314.673,195.465z"/>
	<path style="fill:#28A5A5;" d="M404.835,195.465v-23.068c0-1.65,1.35-3,3-3h-9.333c-1.65,0-3,1.35-3,3v23.068c0,1.65,1.35,3,3,3
		h9.333C406.184,198.465,404.835,197.115,404.835,195.465z"/>
	<path style="fill:#28A5A5;" d="M344.671,195.465v-77.689c0-1.65,1.35-3,3-3h-9.333c-1.65,0-3,1.35-3,3v77.689c0,1.65,1.35,3,3,3
		h9.333C346.021,198.465,344.671,197.115,344.671,195.465z"/>
	<path style="fill:#28A5A5;" d="M374.671,195.465v-53.076c0-1.65,1.35-3,3-3h-9.333c-1.65,0-3,1.35-3,3v53.076c0,1.65,1.35,3,3,3
		h9.333C376.02,198.465,374.671,197.115,374.671,195.465z"/>
</g>
<circle style="fill:#EF8318;" cx="129.51" cy="243.99" r="36"/>
<path style="fill:#DB722C;" d="M108.021,243.992c0-17.396,12.34-31.911,28.746-35.268c-2.343-0.48-4.77-0.731-7.254-0.731
	c-19.883,0-36.001,16.118-36.001,35.999c0,19.883,16.118,36.001,36.001,36.001c2.485,0,4.911-0.252,7.254-0.731
	C120.361,275.905,108.021,261.39,108.021,243.992z"/>
<path style="fill:#FFD00D;" d="M124.841,263.613c-1.989,0-3.897-0.79-5.303-2.197l-13.58-13.58c-2.929-2.929-2.929-7.677,0-10.606
	c2.929-2.928,7.678-2.929,10.606,0.001l8.276,8.276l15.951-15.952c2.93-2.93,7.677-2.929,10.607-0.001
	c2.929,2.929,2.929,7.678,0.001,10.606l-21.254,21.256C128.738,262.823,126.831,263.613,124.841,263.613z"/>
<g>
	<path style="fill:#FF9F60;" d="M238,241.033h-55.308c-4.142,0-7.5-3.357-7.5-7.5s3.358-7.5,7.5-7.5H238c4.142,0,7.5,3.357,7.5,7.5
		C245.5,237.676,242.142,241.033,238,241.033z"/>
	<path style="fill:#FF9F60;" d="M221,265.031h-38.308c-4.142,0-7.5-3.358-7.5-7.5c0-4.143,3.358-7.5,7.5-7.5H221
		c4.142,0,7.5,3.357,7.5,7.5S225.142,265.031,221,265.031z"/>
</g>
<path style="fill:#52BBEF;" d="M30.319,203.563c-3.131,0-5.669-2.538-5.669-5.669v-43.935H5.669c-2.16,0-4.131-1.227-5.084-3.163
	c-0.956-1.936-0.728-4.247,0.587-5.959l37.704-49.101c1.073-1.397,2.734-2.216,4.497-2.216s3.423,0.818,4.497,2.216l37.704,49.101
	c1.314,1.712,1.542,4.023,0.587,5.959c-0.954,1.937-2.924,3.163-5.084,3.163H62.093v43.935c0,3.131-2.537,5.669-5.669,5.669H30.319z
	"/>
<path style="fill:#1E99D6;" d="M36.659,145.626c0-1.657-1.343-3-3-3H2.87l-1.698,2.211c-1.314,1.712-1.543,4.023-0.587,5.959
	c0.953,1.937,2.924,3.163,5.084,3.163H24.65v43.935c0,3.131,2.539,5.669,5.669,5.669h6.339L36.659,145.626L36.659,145.626z"/>
<path style="fill:#52BBEF;" d="M46.28,304.414c-2.301,0-4.166-1.865-4.166-4.165v-32.287H28.166c-1.587,0-3.036-0.9-3.736-2.324
	c-0.703-1.423-0.535-3.12,0.431-4.378l27.707-36.083c0.789-1.026,2.009-1.629,3.304-1.629c1.295,0,2.516,0.603,3.304,1.629
	l27.707,36.083c0.966,1.258,1.134,2.955,0.432,4.378c-0.7,1.424-2.148,2.324-3.736,2.324H69.63v32.287
	c0,2.3-1.864,4.165-4.166,4.165H46.28z"/>
<path style="fill:#1E99D6;" d="M52.124,261.961c0-1.657-1.343-3-3-3H26.627l-1.765,2.299c-0.966,1.258-1.134,2.955-0.431,4.378
	c0.7,1.424,2.148,2.324,3.736,2.324h13.948v32.287c0,2.3,1.865,4.165,4.166,4.165h5.843V261.961z"/>
<path style="fill:#EF8318;" d="M157.512,329c0,1.65-1.35,3-3,3h-60c-1.65,0-3-1.35-3-3v-18c0-1.65,1.35-3,3-3h60c1.65,0,3,1.35,3,3
	V329z"/>
<path style="fill:#DB722C;" d="M111.355,329v-18c0-1.65,1.35-3,3-3H94.512c-1.65,0-3,1.35-3,3v18c0,1.65,1.35,3,3,3h19.842
	C112.705,332,111.355,330.65,111.355,329z"/>
<g>
	<path style="fill:#EF8318;" d="M195.512,329c0,1.65-1.35,3-3,3h-21c-1.65,0-3-1.35-3-3v-18c0-1.65,1.35-3,3-3h21c1.65,0,3,1.35,3,3
		V329z"/>
	<path style="fill:#EF8318;" d="M230.512,329c0,1.65-1.35,3-3,3h-21c-1.65,0-3-1.35-3-3v-18c0-1.65,1.35-3,3-3h21c1.65,0,3,1.35,3,3
		V329z"/>
</g>
<g>
	<path style="fill:#DB722C;" d="M178.512,329v-18c0-1.65,1.35-3,3-3h-10c-1.65,0-3,1.35-3,3v18c0,1.65,1.35,3,3,3h10
		C179.862,332,178.512,330.65,178.512,329z"/>
	<path style="fill:#DB722C;" d="M213.512,329v-18c0-1.65,1.35-3,3-3h-10c-1.65,0-3,1.35-3,3v18c0,1.65,1.35,3,3,3h10
		C214.862,332,213.512,330.65,213.512,329z"/>
</g>
<path style="fill:#FE3745;" d="M319.512,329c0,1.65-1.35,3-3,3h-60c-1.65,0-3-1.35-3-3v-18c0-1.65,1.35-3,3-3h60c1.65,0,3,1.35,3,3
	V329z"/>
<path style="fill:#B7092B;" d="M273.355,329v-18c0-1.65,1.35-3,3-3h-19.842c-1.65,0-3,1.35-3,3v18c0,1.65,1.35,3,3,3h19.842
	C274.705,332,273.355,330.65,273.355,329z"/>
<path style="fill:#FE3745;" d="M348.229,308h-14.717c-1.65,0-3,1.35-3,3v18c0,1.65,1.35,3,3,3h14.717V308z"/>
<g>
	<path style="fill:#FF9F60;" d="M408.929,241.033H261.072c-4.142,0-7.5-3.357-7.5-7.5s3.358-7.5,7.5-7.5h147.857
		c4.142,0,7.5,3.357,7.5,7.5C416.429,237.676,413.072,241.033,408.929,241.033z"/>
	<path style="fill:#FF9F60;" d="M374.741,250.031H261.072c-4.142,0-7.5,3.357-7.5,7.5c0,4.142,3.358,7.5,7.5,7.5h94.96
		C360.692,258.413,367.171,253.167,374.741,250.031z"/>
	<path style="fill:#FF9F60;" d="M351.186,274.029h-90.114c-4.142,0-7.5,3.357-7.5,7.5s3.358,7.5,7.5,7.5h87.173
		C348.319,283.744,349.356,278.69,351.186,274.029z"/>
</g>
<path style="fill:#5DC1D8;" d="M488.813,426.38h-37.305l2.129,7.703c0.405,1.465-0.254,3.616-1.41,4.603l-21.726,18.559
	c-0.471,0.402-1.086,0.624-1.731,0.624c-0.748,0-1.458-0.298-1.95-0.816l-14.184-14.96c-0.829-0.874-1.939-1.355-3.126-1.355
	s-2.297,0.482-3.127,1.355l-14.183,14.959c-0.492,0.52-1.203,0.817-1.95,0.817c-0.646,0-1.26-0.222-1.731-0.624l-21.726-18.559
	c-1.155-0.987-1.814-3.139-1.41-4.603l2.128-7.703h-37.306c-12.785,0-23.186,10.4-23.186,23.185v26.107
	c0,2.697,2.188,4.886,4.885,4.886h195.211c2.697,0,4.885-2.189,4.885-4.886v-26.107C512,436.78,501.598,426.38,488.813,426.38z"/>
<path style="fill:#28A5A5;" d="M326.862,475.672v-26.107c0-12.784,10.401-23.185,23.186-23.185h-19.842
	c-12.785,0-23.186,10.4-23.186,23.185v26.107c0,2.697,2.188,4.886,4.885,4.886h19.842
	C329.049,480.558,326.862,478.369,326.862,475.672z"/>
<path style="fill:#FFFFFF;" d="M409.51,471.82c-1.72,0-3.412-0.698-4.626-1.918c-1.221-1.215-1.919-2.906-1.919-4.626
	s0.697-3.413,1.919-4.626c1.214-1.221,2.897-1.92,4.626-1.92c1.719,0,3.412,0.699,4.625,1.92c1.222,1.213,1.92,2.906,1.92,4.626
	s-0.698,3.411-1.92,4.626C412.913,471.122,411.229,471.82,409.51,471.82z"/>
<g>
	<path style="fill:#D9EAFC;" d="M409.832,469.902c-1.222-1.215-1.92-2.906-1.92-4.626s0.698-3.413,1.92-4.626
		c0.614-0.618,1.35-1.102,2.149-1.429c-0.781-0.319-1.622-0.491-2.471-0.491c-1.728,0-3.412,0.699-4.626,1.92
		c-1.221,1.213-1.919,2.906-1.919,4.626s0.697,3.411,1.919,4.626c1.214,1.22,2.906,1.918,4.626,1.918
		c0.849,0,1.69-0.172,2.471-0.492C411.182,471.001,410.444,470.519,409.832,469.902z"/>
	<path style="fill:#D9EAFC;" d="M448.249,410.833c-10.575,8.624-24.061,13.806-38.739,13.806c-14.678,0-28.164-5.182-38.74-13.806
		l-6.351,22.983c-0.511,1.85,0.266,4.384,1.724,5.631l21.726,18.559c1.461,1.248,3.735,1.129,5.057-0.266l14.183-14.959
		c1.321-1.393,3.482-1.393,4.802,0l14.184,14.959c1.32,1.395,3.595,1.514,5.057,0.266l21.726-18.559
		c1.46-1.247,2.236-3.781,1.725-5.631L448.249,410.833z"/>
</g>
<path style="fill:#AEC1ED;" d="M381.986,439.447c-1.458-1.247-2.235-3.781-1.724-5.631l4.037-14.609
	c-4.879-2.208-9.425-5.027-13.528-8.374l-6.351,22.983c-0.511,1.85,0.266,4.384,1.724,5.631l21.726,18.559
	c1.461,1.248,3.735,1.129,5.057-0.266l4.688-4.943L381.986,439.447z"/>
<path style="fill:#EF8318;" d="M437.592,259.986c-4.652,0-9.086,0.933-13.128,2.615c3.952,4.869,6.86,10.614,8.388,16.895
	c22.828,4.372,38.939,16.607,38.939,42.747v-28.058C471.791,275.296,456.48,259.986,437.592,259.986z"/>
<path style="fill:#FF9518;" d="M409.51,277.51c8.609,0,16.81,0.648,24.269,2.158c-4.517-19.413-21.906-33.883-42.694-33.883
	c-24.221,0-43.855,19.633-43.855,43.854v32.603C347.229,287.846,375.113,277.51,409.51,277.51z"/>
<path style="fill:#EF8318;" d="M359.597,291.318v-1.679c0-22.128,16.39-40.417,37.691-43.415c-2.027-0.288-4.098-0.439-6.204-0.439
	c-24.221,0-43.855,19.633-43.855,43.854v32.603C347.229,308.272,351.829,298.271,359.597,291.318z"/>
<path style="fill:#FFC987;" d="M348.102,335.273h-1.905c-11.19,0-20.26,9.07-20.26,20.26s9.07,20.26,20.26,20.26h3.201
	c-0.846-4.057-1.296-8.258-1.296-12.563V335.273z"/>
<path style="fill:#FFDD8D;" d="M333.356,355.533c0-9.277,6.238-17.092,14.746-19.495v-0.765h-1.905c-11.19,0-20.26,9.07-20.26,20.26
	s9.07,20.26,20.26,20.26h3.201c-0.031-0.152-0.053-0.309-0.084-0.462C340.193,373.357,333.356,365.245,333.356,355.533z"/>
<path style="fill:#FFC987;" d="M472.824,335.273h-1.905v27.957c0,4.305-0.451,8.506-1.297,12.563h3.202
	c11.189,0,20.26-9.07,20.26-20.26C493.085,344.344,484.012,335.273,472.824,335.273z"/>
<path style="fill:#FFE2B8;" d="M471.791,363.231c0,34.398-27.884,62.281-62.281,62.281l0,0c-34.397,0-62.281-27.883-62.281-62.281
	v-41.988c0-34.397,27.884-44.732,62.281-44.732l0,0c34.397,0,62.281,10.336,62.281,44.732V363.231z"/>
<path style="fill:#FFDD8D;" d="M359.597,363.231v-41.988c0-32.31,24.603-43.387,56.096-44.614c-2.034-0.078-4.096-0.118-6.184-0.118
	c-34.397,0-62.281,10.336-62.281,44.732v41.988c0,34.398,27.884,62.281,62.281,62.281c2.087,0,4.15-0.106,6.184-0.308
	C384.201,422.1,359.597,395.541,359.597,363.231z"/>
<g>
	<path style="fill:#BF7E52;" d="M379.84,350.801c-3.615,0-6.545-2.929-6.545-6.544v-11.345c0-3.615,2.93-6.544,6.545-6.544
		c3.615,0,6.545,2.929,6.545,6.544v11.345C386.385,347.872,383.455,350.801,379.84,350.801z"/>
	<path style="fill:#BF7E52;" d="M439.18,350.801c-3.615,0-6.545-2.929-6.545-6.544v-11.345c0-3.615,2.93-6.544,6.545-6.544
		c3.614,0,6.545,2.929,6.545,6.544v11.345C445.725,347.872,442.794,350.801,439.18,350.801z"/>
	<path style="fill:#BF7E52;" d="M415.182,364.91h-7.853c-5.535,0-10.036-4.502-10.036-10.037v-18.615
		c0-3.614,2.93-6.545,6.545-6.545c3.616,0,6.545,2.931,6.545,6.545v15.561h4.8c3.614,0,6.545,2.931,6.545,6.546
		C421.727,361.98,418.797,364.91,415.182,364.91z"/>
</g>
<path style="fill:#FFFFFF;" d="M427.409,376.232h-35.8c-3.026,0-5.479,2.453-5.479,5.481c0,12.891,10.488,23.38,23.38,23.38
	s23.38-10.489,23.38-23.38C432.891,378.685,430.438,376.232,427.409,376.232z"/>
<g>
</g>
<g>
</g>
<g>
</g>
<g>
</g>
<g>
</g>
<g>
</g>
<g>
</g>
<g>
</g>
<g>
</g>
<g>
</g>
<g>
</g>
<g>
</g>
<g>
</g>
<g>
</g>
<g>
</g>
</svg>
