<svg height="496pt" viewBox="0 -48 496 496" width="496pt" xmlns="http://www.w3.org/2000/svg"><path d="m336 344h-176c-17.671875 0-32 14.328125-32 32v16h240v-16c0-17.671875-14.328125-32-32-32zm0 0" fill="#999"/><path d="m208 296h80v48h-80zm0 0" fill="#656665"/><path d="m8 8h480v288h-480zm0 0" fill="#999"/><path d="m40 40h416v224h-416zm0 0" fill="#94cce7"/><path d="m424 152c0 8.835938-7.164062 16-16 16s-16-7.164062-16-16 7.164062-16 16-16 16 7.164062 16 16zm0 0" fill="#eebc5a"/><path d="m104 152c0 8.835938-7.164062 16-16 16s-16-7.164062-16-16 7.164062-16 16-16 16 7.164062 16 16zm0 0" fill="#eebc5a"/><path d="m328 168v-32h-18.097656c-1.421875-5.527344-3.535156-10.769531-6.292969-15.609375l16.390625-16.390625-24-24-16.390625 16.390625c-4.839844-2.757813-10.082031-4.871094-15.609375-6.292969v-18.097656h-32v18.097656c-5.527344 1.421875-10.769531 3.535156-15.609375 6.292969l-16.390625-16.390625-24 24 16.390625 16.390625c-2.757813 4.839844-4.871094 10.082031-6.292969 15.609375h-18.097656v32h18.097656c1.421875 5.527344 3.535156 10.769531 6.292969 15.609375l-16.390625 16.390625 24 24 16.390625-16.390625c4.839844 2.757813 10.082031 4.871094 15.609375 6.292969v18.097656h32v-18.097656c5.527344-1.421875 10.769531-3.535156 15.609375-6.292969l16.390625 16.390625 24-24-16.390625-16.390625c2.757813-4.839844 4.871094-10.082031 6.292969-15.609375zm0 0" fill="#dc6068"/><path d="m280 152c0 17.671875-14.328125 32-32 32s-32-14.328125-32-32 14.328125-32 32-32 32 14.328125 32 32zm0 0" fill="#fff"/><path d="m264 240h-32c-4.414062 0-8-3.585938-8-8v-12.175781c-2.0625-.726563-4.089844-1.542969-6.0625-2.449219l-12.28125 12.28125c-3.128906 3.128906-8.183594 3.128906-11.3125 0l-24-24c-3.128906-3.128906-3.128906-8.183594 0-11.3125l12.28125-12.28125c-.90625-1.972656-1.722656-4-2.449219-6.0625h-12.175781c-4.414062 0-8-3.585938-8-8v-32c0-4.414062 3.585938-8 8-8h12.175781c.726563-2.0625 1.542969-4.089844 2.449219-6.0625l-12.28125-12.28125c-3.128906-3.128906-3.128906-8.183594 0-11.3125l24-24c3.128906-3.128906 8.183594-3.128906 11.3125 0l12.28125 12.28125c1.972656-.90625 4-1.722656 6.0625-2.449219v-12.175781c0-4.414062 3.585938-8 8-8h32c4.414062 0 8 3.585938 8 8v12.175781c2.0625.726563 4.089844 1.542969 6.0625 2.449219l12.28125-12.28125c3.128906-3.128906 8.183594-3.128906 11.3125 0l24 24c3.128906 3.128906 3.128906 8.183594 0 11.3125l-12.28125 12.28125c.90625 1.972656 1.722656 4 2.449219 6.0625h12.175781c4.414062 0 8 3.585938 8 8v32c0 4.414062-3.585938 8-8 8h-12.175781c-.726563 2.0625-1.542969 4.089844-2.449219 6.0625l12.28125 12.28125c3.128906 3.128906 3.128906 8.183594 0 11.3125l-24 24c-3.128906 3.128906-8.183594 3.128906-11.3125 0l-12.28125-12.28125c-1.972656.90625-4 1.722656-6.0625 2.449219v12.175781c0 4.414062-3.585938 8-8 8zm-24-16h16v-10.097656c0-3.644532 2.472656-6.832032 6-7.742188 4.847656-1.25 9.441406-3.105468 13.640625-5.503906 3.136719-1.777344 7.078125-1.257812 9.625 1.296875l10.734375 10.734375 12.6875-12.6875-10.734375-10.734375c-2.554687-2.554687-3.082031-6.488281-1.296875-9.625 2.398438-4.199219 4.246094-8.792969 5.503906-13.640625.910156-3.527344 4.097656-6 7.742188-6h10.097656v-16h-10.097656c-3.644532 0-6.832032-2.472656-7.742188-6-1.25-4.847656-3.105468-9.441406-5.503906-13.640625-1.785156-3.136719-1.257812-7.070313 1.296875-9.625l10.734375-10.734375-12.6875-12.6875-10.734375 10.734375c-2.546875 2.5625-6.488281 3.089844-9.625 1.296875-4.199219-2.398438-8.792969-4.246094-13.640625-5.503906-3.527344-.902344-6-4.097656-6-7.742188v-10.097656h-16v10.097656c0 3.644532-2.472656 6.832032-6 7.742188-4.847656 1.25-9.441406 3.105468-13.640625 5.503906-3.121094 1.800781-7.070313 1.265625-9.625-1.296875l-10.734375-10.734375-12.6875 12.6875 10.734375 10.734375c2.554687 2.554687 3.082031 6.488281 1.296875 9.625-2.398438 4.199219-4.246094 8.792969-5.503906 13.640625-.902344 3.527344-4.097656 6-7.742188 6h-10.097656v16h10.097656c3.644532 0 6.832032 2.472656 7.742188 6 1.25 4.847656 3.105468 9.441406 5.503906 13.640625 1.785156 3.136719 1.257812 7.070313-1.296875 9.625l-10.734375 10.734375 12.6875 12.6875 10.734375-10.734375c2.546875-2.554687 6.496094-3.074219 9.625-1.296875 4.199219 2.398438 8.792969 4.246094 13.640625 5.503906 3.527344.910156 6 4.097656 6 7.742188zm0 0"/><path d="m248 192c-22.054688 0-40-17.945312-40-40s17.945312-40 40-40 40 17.945312 40 40-17.945312 40-40 40zm0-64c-13.230469 0-24 10.769531-24 24s10.769531 24 24 24 24-10.769531 24-24-10.769531-24-24-24zm0 0"/><path d="m488 304h-480c-4.414062 0-8-3.585938-8-8v-288c0-4.414062 3.585938-8 8-8h480c4.414062 0 8 3.585938 8 8v288c0 4.414062-3.585938 8-8 8zm-472-16h464v-272h-464zm0 0"/><path d="m456 272h-416c-4.414062 0-8-3.585938-8-8v-224c0-4.414062 3.585938-8 8-8h416c4.414062 0 8 3.585938 8 8v224c0 4.414062-3.585938 8-8 8zm-408-16h400v-208h-400zm0 0"/><path d="m368 400h-240c-4.414062 0-8-3.585938-8-8v-16c0-22.054688 17.945312-40 40-40h176c22.054688 0 40 17.945312 40 40v16c0 4.414062-3.585938 8-8 8zm-232-16h224v-8c0-13.230469-10.769531-24-24-24h-176c-13.230469 0-24 10.769531-24 24zm0 0"/><path d="m200 296h16v48h-16zm0 0"/><path d="m280 296h16v48h-16zm0 0"/><path d="m408 176c-13.230469 0-24-10.769531-24-24s10.769531-24 24-24 24 10.769531 24 24-10.769531 24-24 24zm0-32c-4.40625 0-8 3.59375-8 8s3.59375 8 8 8 8-3.59375 8-8-3.59375-8-8-8zm0 0"/><path d="m328 144h64v16h-64zm0 0"/><path d="m88 176c-13.230469 0-24-10.769531-24-24s10.769531-24 24-24 24 10.769531 24 24-10.769531 24-24 24zm0-32c-4.40625 0-8 3.59375-8 8s3.59375 8 8 8 8-3.59375 8-8-3.59375-8-8-8zm0 0"/><path d="m104 144h64v16h-64zm0 0"/></svg>